<svg width="50" height="51" viewBox="0 0 50 51" fill="none" xmlns="http://www.w3.org/2000/svg">
<path d="M21.475 13.9C17.375 9.79997 13.775 11.4 10.875 14.2L8.475 16.7L5.175 20C-1.725 26.9 -1.725 38.1 5.175 44.9C10.575 50.3 18.475 51.4 25.075 48.4C23.275 47.5 21.475 46.4 19.975 44.9L16.575 41.5C14.475 41.2 12.775 40.5 11.275 39C7.675 35.4 7.675 29.6 11.275 26L22.375 14.8L21.475 13.9Z" fill="#2378BE"/>
<path d="M11.1746 25.8C7.57461 29.4 7.57461 35.3 11.1746 38.9C12.7746 40.5 14.6746 41.2999 16.6746 41.5L14.3746 39.2C11.5746 36.4 10.1746 32.7 14.1746 28.6L25.1746 17.6L22.2746 14.7L11.1746 25.8Z" fill="#524C9B"/>
<path d="M25.0744 48.4C23.2744 47.5 21.4744 46.4 19.9744 44.9L16.6744 41.6L14.3744 39.3C11.5744 36.5 10.0744 32.8 14.0744 28.7L14.8744 27.9L25.9744 38.9C29.5744 42.5 35.3744 42.5 38.9744 38.9C40.5744 37.3 41.3744 35.4 41.5744 33.4L44.8744 30.1C46.3744 28.6 47.5744 26.9 48.3744 25C51.3744 31.5 50.1744 39.5 44.8744 44.9C37.9744 51.8 26.8744 51.8 19.9744 44.9" fill="#6FB630"/>
<path d="M14.875 27.9L17.775 25V25.1L28.675 36C32.775 40.1 36.375 38.6 39.275 35.8L41.575 33.4C41.375 35.4 40.475 37.5 38.975 39C35.375 42.6 29.475 42.6 25.875 39L14.875 27.9Z" fill="#27867F"/>
<path d="M38.875 24.2001L27.875 35.2001L28.575 35.9001C32.675 40.0001 36.175 38.8001 39.275 35.8001L41.575 33.4001L44.875 30.1001C51.775 23.2001 51.675 12.0001 44.775 5.2001C41.375 1.8001 36.875 0.100098 32.375 0.100098C29.875 0.100098 27.175 0.600098 24.875 1.7001C26.775 2.6001 28.475 3.8001 29.975 5.3001L33.275 8.6001C35.275 8.8001 37.275 9.7001 38.775 11.2001C42.375 14.9001 42.475 20.6001 38.875 24.2001Z" fill="#F3930D"/>
<path d="M38.9746 24.1L27.8746 35.2L24.9746 32.3L35.9746 21.3C40.0746 17.2 38.5746 13.6 35.7746 10.8L33.4746 8.5C35.4746 8.7 37.4746 9.6 38.9746 11.1C42.5746 14.7 42.5746 20.5 38.9746 24.1Z" fill="#FDCF18"/>
<path d="M35.1742 22.0999L32.3742 24.8999L21.5742 13.9999C17.4742 9.8999 13.8742 11.3999 10.9742 14.1999L8.67422 16.4999L8.57422 16.5999C8.77422 14.5999 9.67422 12.5999 11.1742 11.0999C14.7742 7.4999 20.6742 7.4999 24.2742 11.0999L35.1742 22.0999Z" fill="#911E74"/>
<path d="M35.7745 10.8L33.4745 8.5L30.2745 5.3C26.7745 1.8 22.2745 0 17.7745 0C13.2745 0 8.77454 1.7 5.27454 5.1C-0.0254626 10.6 -1.32546 18.4 1.67454 24.9C2.57454 23.1 3.77454 21.4 5.27454 19.9L8.57454 16.6C8.77454 14.6 9.67454 12.6 11.1745 11.1C14.7745 7.5 20.6745 7.5 24.2745 11.1L35.1745 22.1L36.0745 21.3C40.0745 17.2 38.5745 13.5 35.7745 10.8Z" fill="#E51F2C"/>
</svg>
